<?xml version="1.0" encoding="utf-8"?>
<!-- Generator: Adobe Illustrator 21.1.0, SVG Export Plug-In . SVG Version: 6.00 Build 0)  -->
<svg version="1.1" xmlns="http://www.w3.org/2000/svg" xmlns:xlink="http://www.w3.org/1999/xlink" x="0px" y="0px"
	 viewBox="0 0 100 100" style="enable-background:new 0 0 100 100;" xml:space="preserve">
<style type="text/css">
	.st0{display:none;}
	.st1{display:inline;}
	.st2{fill:#231F20;}
</style>
<g id="Layer_1" class="st0">
	<g class="st1">
		<g>
			<path class="st2" d="M50,2c26.5,0,48,21.5,48,48S76.5,98,50,98S2,76.5,2,50S23.5,2,50,2 M50,0C22.4,0,0,22.4,0,50s22.4,50,50,50
				s50-22.4,50-50S77.6,0,50,0L50,0z"/>
		</g>
		<g>
			<g>
				<path class="st2" d="M78.3,49.8C72,49.5,65.3,45.7,60,41c-0.8,1.4-1.9,2.7-3.2,3.8c-3.8,3.3-9.5,4.9-16.9,4.9c-0.6,0-1-0.4-1-1
					s0.4-1,1-1c6.9,0,12.1-1.5,15.6-4.4c1.4-1.2,2.3-2.4,2.9-3.7C53,34.4,49.2,28.4,49.3,25c0-2,1.3-3.1,3.5-3.1c4.8,0,9,5.8,9,12.3
					c0,1.7-0.3,3.3-0.8,4.8c5,4.6,11.4,8.5,17.5,8.7c0.6,0,1,0.5,1,1C79.3,49.3,78.8,49.8,78.3,49.8C78.3,49.8,78.3,49.8,78.3,49.8z
					 M51.3,25.1c-0.1,2.5,3.2,7.7,8,12.5c0.3-1.2,0.4-2.3,0.4-3.3c0-5.4-3.3-10.3-7-10.3C51.4,23.9,51.3,24.5,51.3,25.1z"/>
			</g>
			<g>
				<g>
					<path class="st2" d="M21.7,64.9h22.3c0.6,0,1-0.4,1-1s-0.4-1-1-1H21.7c-0.6,0-1,0.4-1,1S21.1,64.9,21.7,64.9z"/>
				</g>
				<g>
					<path class="st2" d="M21.7,71.5h22.3c0.6,0,1-0.4,1-1s-0.4-1-1-1H21.7c-0.6,0-1,0.4-1,1S21.1,71.5,21.7,71.5z"/>
				</g>
				<g>
					<path class="st2" d="M24.2,78.1h19.8c0.6,0,1-0.4,1-1s-0.4-1-1-1H24.2c-0.6,0-1,0.4-1,1S23.6,78.1,24.2,78.1z"/>
				</g>
			</g>
		</g>
	</g>
</g>
<g id="Layer_2" class="st0">
	<g class="st1">
		<g>
			<path class="st2" d="M50,2c26.5,0,48,21.5,48,48S76.5,98,50,98S2,76.5,2,50S23.5,2,50,2 M50,0C22.4,0,0,22.4,0,50s22.4,50,50,50
				s50-22.4,50-50S77.6,0,50,0L50,0z"/>
		</g>
		<g>
			<g>
				<path class="st2" d="M65,70.9H35c-0.5,0-0.9-0.4-0.9-0.9V30c0-0.5,0.4-0.9,0.9-0.9h30c0.5,0,0.9,0.4,0.9,0.9v40
					C65.9,70.5,65.5,70.9,65,70.9z M35.9,69.1h28.3V30.9H35.9V69.1z"/>
			</g>
			<g>
				<path class="st2" d="M75,41c-0.6,0-1-0.4-1-1V21H55c-0.6,0-1-0.4-1-1s0.4-1,1-1h20c0.6,0,1,0.4,1,1v20C76,40.6,75.6,41,75,41z"
					/>
			</g>
			<g>
				<path class="st2" d="M45,81H25c-0.6,0-1-0.4-1-1V60c0-0.6,0.4-1,1-1s1,0.4,1,1v19h19c0.6,0,1,0.4,1,1S45.6,81,45,81z"/>
			</g>
		</g>
	</g>
</g>
<g id="Layer_3">
	<g>
		<g>
			<path class="st2" d="M50,2c26.5,0,48,21.5,48,48S76.5,98,50,98S2,76.5,2,50S23.5,2,50,2 M50,0C22.4,0,0,22.4,0,50s22.4,50,50,50
				s50-22.4,50-50S77.6,0,50,0L50,0z"/>
		</g>
		<g>
			<g>
				<path class="st2" d="M31,50.4l-8.7-8.7c-0.4-0.4-0.4-1,0-1.4s1-0.4,1.4,0l7.3,7.3l23.3-23.3c0.4-0.4,1-0.4,1.4,0s0.4,1,0,1.4
					L31,50.4z"/>
			</g>
			<g>
				<g>
					<path class="st2" d="M77,76c-0.3,0-0.5-0.1-0.7-0.3l-24-24c-0.4-0.4-0.4-1,0-1.4s1-0.4,1.4,0l24,24c0.4,0.4,0.4,1,0,1.4
						C77.5,75.9,77.3,76,77,76z"/>
				</g>
				<g>
					<path class="st2" d="M53,76c-0.3,0-0.5-0.1-0.7-0.3c-0.4-0.4-0.4-1,0-1.4l24-24c0.4-0.4,1-0.4,1.4,0s0.4,1,0,1.4l-24,24
						C53.5,75.9,53.3,76,53,76z"/>
				</g>
			</g>
		</g>
	</g>
</g>
<g id="Layer_4" class="st0">
	<g class="st1">
		<g>
			<path class="st2" d="M50,2c26.5,0,48,21.5,48,48S76.5,98,50,98S2,76.5,2,50S23.5,2,50,2 M50,0C22.4,0,0,22.4,0,50s22.4,50,50,50
				s50-22.4,50-50S77.6,0,50,0L50,0z"/>
		</g>
		<g>
			<path class="st2" d="M34.4,20.6L34.4,20.6c-0.7,0-1.2,0.5-1.3,1.2c-0.6,7.8-7.1,9.4-9.8,9.7c-0.6,0.1-1.1,0.6-1.1,1.3l0,0
				c0,0.7,0.5,1.2,1.2,1.3c7.8,0.6,9.4,7.1,9.7,9.8c0.1,0.6,0.6,1.1,1.3,1.1h0c0.7,0,1.2-0.5,1.3-1.2c0.6-7.8,7.1-9.4,9.8-9.7
				c0.6-0.1,1.1-0.6,1.1-1.3v0c0-0.7-0.5-1.2-1.2-1.3c-7.8-0.6-9.4-7.1-9.7-9.8C35.6,21,35.1,20.6,34.4,20.6z M34.4,43.9
				c0,0,0-11.2-11.2-11.2c0,0,11.2,0,11.2-11.2c0,0,0,11.2,11.2,11.2C45.6,32.8,34.4,32.8,34.4,43.9z"/>
			<path class="st2" d="M63.5,35.5L63.5,35.5c-0.7,0-1.3,0.5-1.3,1.2c-0.6,8-7.3,9.7-10.1,10c-0.7,0.1-1.2,0.6-1.2,1.3l0,0
				c0,0.7,0.5,1.3,1.2,1.3c8,0.6,9.7,7.3,10,10.1c0.1,0.7,0.6,1.2,1.3,1.2h0c0.7,0,1.3-0.5,1.3-1.2c0.6-8,7.3-9.7,10.1-10
				c0.7-0.1,1.2-0.6,1.2-1.3v0c0-0.7-0.5-1.3-1.2-1.3c-8-0.6-9.7-7.3-10-10.1C64.7,36,64.1,35.5,63.5,35.5z M63.4,59.6
				c0,0,0-11.5-11.5-11.5c0,0,11.5,0,11.5-11.5c0,0,0,11.5,11.5,11.5C74.9,48.1,63.4,48.1,63.4,59.6z"/>
			<path class="st2" d="M41,55L41,55c-0.7,0-1.2,0.5-1.3,1.2c-0.6,7.8-7.1,9.4-9.8,9.7c-0.6,0.1-1.1,0.6-1.1,1.3l0,0
				c0,0.7,0.5,1.2,1.2,1.3c7.8,0.6,9.4,7.1,9.7,9.8c0.1,0.6,0.6,1.1,1.3,1.1h0c0.7,0,1.2-0.5,1.3-1.2c0.6-7.8,7.1-9.4,9.8-9.7
				c0.6-0.1,1.1-0.6,1.1-1.3v0c0-0.7-0.5-1.2-1.2-1.3c-7.8-0.6-9.4-7.1-9.7-9.8C42.2,55.5,41.6,55,41,55z M40.9,78.4
				c0,0,0-11.2-11.2-11.2c0,0,11.2,0,11.2-11.2c0,0,0,11.2,11.2,11.2C52.1,67.2,40.9,67.2,40.9,78.4z"/>
			<g>
				<path class="st2" d="M77.8,71.8c0,0.5-0.5,1-1,1h-4v4c0,0.5-0.5,1-1,1s-1-0.5-1-1v-4h-4c-0.5,0-1-0.5-1-1s0.5-1,1-1h4v-4
					c0-0.5,0.5-1,1-1s1,0.5,1,1v4h4C77.4,70.8,77.8,71.2,77.8,71.8z"/>
			</g>
		</g>
	</g>
</g>
<g id="Layer_5" class="st0">
	<g class="st1">
		<g>
			<path class="st2" d="M50,2c26.5,0,48,21.5,48,48S76.5,98,50,98S2,76.5,2,50S23.5,2,50,2 M50,0C22.4,0,0,22.4,0,50s22.4,50,50,50
				s50-22.4,50-50S77.6,0,50,0L50,0z"/>
		</g>
	</g>
	<g class="st1">
		<g>
			<path class="st2" d="M70,76H30c-0.6,0-1-0.4-1-1V25c0-0.6,0.4-1,1-1h30c0.3,0,0.5,0.1,0.7,0.3l10,10c0.2,0.2,0.3,0.4,0.3,0.7v40
				C71,75.6,70.6,76,70,76z M31,74h38V35.4L59.6,26H31V74z"/>
		</g>
		<g>
			<path class="st2" d="M70,36H60c-0.6,0-1-0.4-1-1V25c0-0.6,0.4-1,1-1s1,0.4,1,1v9h9c0.6,0,1,0.4,1,1S70.6,36,70,36z"/>
		</g>
		<g>
			<path class="st2" d="M50,66c-6.1,0-11-4.9-11-11c0-0.6,0.4-1,1-1s1,0.4,1,1c0,5,4,9,9,9s9-4,9-9c0-0.6,0.4-1,1-1s1,0.4,1,1
				C61,61.1,56.1,66,50,66z"/>
		</g>
	</g>
</g>
<g id="Layer_6" class="st0">
	<g class="st1">
		<g>
			<path class="st2" d="M50,2c26.5,0,48,21.5,48,48S76.5,98,50,98S2,76.5,2,50S23.5,2,50,2 M50,0C22.4,0,0,22.4,0,50s22.4,50,50,50
				s50-22.4,50-50S77.6,0,50,0L50,0z"/>
		</g>
		<g>
			<path class="st2" d="M88.1,74.2L74.9,61.1c2.5-2.8,3.8-6.4,3.8-10.1c0-8.5-6.9-15.3-15.3-15.3s-15.3,6.9-15.3,15.3
				S55,66.3,63.4,66.3c3.8,0,7.3-1.4,10.1-3.8l13.2,13.2c0.2,0.2,0.4,0.3,0.7,0.3c0.2,0,0.5-0.1,0.7-0.3
				C88.5,75.2,88.5,74.6,88.1,74.2z M72.9,60.4c-0.2,0.2-0.5,0.5-0.7,0.7c-2.4,2.1-5.5,3.3-8.8,3.3c-7.4,0-13.4-6-13.4-13.4
				c0-7.4,6-13.4,13.4-13.4s13.4,6,13.4,13.4c0,3.3-1.2,6.3-3.3,8.8C73.4,60,73.1,60.2,72.9,60.4z"/>
		</g>
		<g>
			<g>
				<g>
					<g>
						<path class="st2" d="M35.6,53.6h-2c0-2.5-2-4.5-4.5-4.5c-2.5,0-4.5,2-4.5,4.5h-2c0-3.6,2.9-6.5,6.5-6.5S35.6,50,35.6,53.6z"/>
					</g>
					<g>
						<path class="st2" d="M23.7,54.6H20c-0.6,0-1-0.4-1-1s0.4-1,1-1h3.7c0.6,0,1,0.4,1,1S24.2,54.6,23.7,54.6z"/>
					</g>
					<g>
						<path class="st2" d="M25.3,50.7c-0.3,0-0.5-0.1-0.7-0.3L22,47.8c-0.4-0.4-0.4-1,0-1.4s1-0.4,1.4,0L26,49c0.4,0.4,0.4,1,0,1.4
							C25.8,50.6,25.5,50.7,25.3,50.7z"/>
					</g>
					<g>
						<path class="st2" d="M29.1,49.1c-0.6,0-1-0.4-1-1v-3.7c0-0.6,0.4-1,1-1s1,0.4,1,1v3.7C30.1,48.6,29.7,49.1,29.1,49.1z"/>
					</g>
					<g>
						<path class="st2" d="M33,50.7c-0.3,0-0.5-0.1-0.7-0.3c-0.4-0.4-0.4-1,0-1.4l2.6-2.6c0.4-0.4,1-0.4,1.4,0s0.4,1,0,1.4l-2.6,2.6
							C33.5,50.6,33.3,50.7,33,50.7z"/>
					</g>
					<g>
						<path class="st2" d="M38.3,54.6h-3.7c-0.6,0-1-0.4-1-1s0.4-1,1-1h3.7c0.6,0,1,0.4,1,1S38.8,54.6,38.3,54.6z"/>
					</g>
				</g>
				<g>
					<path class="st2" d="M29.1,56.6c-1.1,0-2-0.9-2-2s0.9-2,2-2s2,0.9,2,2S30.3,56.6,29.1,56.6z M29.1,54.6L29.1,54.6
						C29.2,54.6,29.2,54.6,29.1,54.6z"/>
				</g>
			</g>
			<g>
				<g>
					<g>
						<path class="st2" d="M70.4,53.6h-2c0-2.5-2-4.5-4.5-4.5c-2.5,0-4.5,2-4.5,4.5h-2c0-3.6,2.9-6.5,6.5-6.5
							C67.5,47.1,70.4,50,70.4,53.6z"/>
					</g>
					<g>
						<path class="st2" d="M58.4,54.6h-3.7c-0.6,0-1-0.4-1-1s0.4-1,1-1h3.7c0.6,0,1,0.4,1,1S59,54.6,58.4,54.6z"/>
					</g>
					<g>
						<path class="st2" d="M60,50.7c-0.3,0-0.5-0.1-0.7-0.3l-2.6-2.6c-0.4-0.4-0.4-1,0-1.4s1-0.4,1.4,0l2.6,2.6c0.4,0.4,0.4,1,0,1.4
							C60.5,50.6,60.3,50.7,60,50.7z"/>
					</g>
					<g>
						<path class="st2" d="M63.9,49.1c-0.6,0-1-0.4-1-1v-3.7c0-0.6,0.4-1,1-1c0.6,0,1,0.4,1,1v3.7C64.9,48.6,64.4,49.1,63.9,49.1z"
							/>
					</g>
					<g>
						<path class="st2" d="M67.8,50.7c-0.3,0-0.5-0.1-0.7-0.3c-0.4-0.4-0.4-1,0-1.4l2.6-2.6c0.4-0.4,1-0.4,1.4,0s0.4,1,0,1.4
							l-2.6,2.6C68.3,50.6,68,50.7,67.8,50.7z"/>
					</g>
					<g>
						<path class="st2" d="M73,54.6h-3.7c-0.6,0-1-0.4-1-1s0.4-1,1-1H73c0.6,0,1,0.4,1,1S73.6,54.6,73,54.6z"/>
					</g>
				</g>
				<g>
					<path class="st2" d="M63.9,56.6c-1.1,0-2-0.9-2-2s0.9-2,2-2c1.1,0,2,0.9,2,2S65,56.6,63.9,56.6z M63.9,54.6L63.9,54.6
						C63.9,54.6,63.9,54.6,63.9,54.6z"/>
				</g>
			</g>
		</g>
	</g>
</g>
</svg>
