<?xml version="1.0" encoding="utf-8"?>
<!-- Generator: Adobe Illustrator 21.1.0, SVG Export Plug-In . SVG Version: 6.00 Build 0)  -->
<svg version="1.1" id="logo" xmlns="http://www.w3.org/2000/svg" xmlns:xlink="http://www.w3.org/1999/xlink" x="0px" y="0px"
	 viewBox="0 0 48 48" style="enable-background:new 0 0 48 48;" xml:space="preserve">
<style type="text/css">
	.st0{fill:#221F1F;}
</style>
<path id="smile" class="st0" d="M24,31.4c-2.8,0-5.1-2.3-5.1-5.1c0-0.3,0.2-0.5,0.5-0.5c0.3,0,0.5,0.2,0.5,0.5
	c0,2.3,1.9,4.2,4.2,4.2s4.2-1.9,4.2-4.2c0-0.3,0.2-0.5,0.5-0.5c0.3,0,0.5,0.2,0.5,0.5C29.1,29.1,26.8,31.4,24,31.4z"/>
<path id="document" class="st0" d="M33.6,16.8l-4.6-4.6c-0.1-0.1-0.2-0.1-0.3-0.1H14.8c-0.3,0-0.5,0.2-0.5,0.5v23.1
	c0,0.3,0.2,0.5,0.5,0.5h13.8c0.1,0,0.2-0.1,0.3-0.1l0.8-0.8l3-3l0.8-0.8c0.1-0.1,0.1-0.2,0.1-0.3V17.1C33.7,17,33.6,16.8,33.6,16.8z
	 M32.1,16.6h-3v-3L32.1,16.6z M32.8,30.7l-4.3,4.3H15.2V12.9h12.9v4.2c0,0.3,0.2,0.5,0.5,0.5h4.2V30.7z"/>
</svg>
